<svg width="143" height="34" viewBox="0 0 143 34" fill="none" xmlns="http://www.w3.org/2000/svg">
<g clip-path="url(#clip0_4719_85)">
<path d="M11.9787 13.9372C12.5435 14.6168 12.8272 15.6302 12.8272 16.9851C12.8272 17.8481 12.7003 18.6012 12.4466 19.2443C12.1951 19.8881 11.8413 20.3546 11.3734 20.6466C10.9027 20.9391 10.3581 21.0908 9.80404 21.0836C8.94381 21.0836 8.23818 20.7524 7.69744 20.0915C7.1567 19.4305 6.88255 18.3518 6.88255 16.8505C6.88255 15.5629 7.17319 14.5863 7.75446 13.9207C8.33643 13.2549 9.05031 12.921 9.88443 12.921C10.7186 12.921 11.4118 13.2618 11.9787 13.9372ZM7.05157 31.9458V24.1879C7.56414 24.8063 8.00457 25.2515 8.36666 25.5304C8.72875 25.8094 9.20284 26.0437 9.77725 26.2292C10.3517 26.4147 11.0415 26.504 11.8385 26.504C14.11 26.504 16.0183 25.6589 17.5633 23.9687C19.1083 22.2785 19.8811 19.9783 19.8815 17.0683C19.8815 15.2997 19.5673 13.6903 18.9389 12.2401C18.3104 10.7899 17.3796 9.67934 16.1465 8.90843C14.918 8.13614 13.548 7.75 12.0364 7.75C10.6718 7.75 9.47218 8.0482 8.44498 8.64321C7.41779 9.23823 6.70872 9.98922 6.3267 10.8859V8.26669H0V31.941L7.05157 31.9458Z" fill="white"/>
<path d="M22.3359 25.9357V8.27344H29.3868V25.9357H22.3359Z" fill="white"/>
<path d="M22.3359 0H29.3868V7.21441H22.3359V0Z" fill="white"/>
<path d="M51.7678 19.0519C51.6226 20.1361 51.3991 21.0177 51.0972 21.6965C50.8071 22.3532 50.4096 22.957 49.9209 23.4829C49.4045 24.0272 48.8211 24.5037 48.1847 24.9011C47.4596 25.3538 46.6769 25.7067 45.8575 25.9503C44.7059 26.2988 43.441 26.4727 42.0627 26.4717C38.8504 26.4717 36.3402 25.6072 34.5322 23.878C32.7243 22.1488 31.8203 19.9071 31.8203 17.1528C31.8203 14.3655 32.7273 12.1016 34.5412 10.3609C36.3551 8.62031 38.8623 7.75 42.0627 7.75C44.2248 7.75 46.0162 8.10751 47.4371 8.82254C48.858 9.53757 49.9214 10.4995 50.6273 11.7083C51.1192 12.5369 51.4602 13.6168 51.6503 14.9479H44.5328C44.4545 14.1532 44.1886 13.5435 43.7351 13.1189C43.2816 12.6943 42.6909 12.4811 41.9631 12.4792C41.0552 12.4792 40.3194 12.8228 39.7555 13.5099C39.1916 14.1969 38.909 15.3526 38.9076 16.9769C38.9076 18.7349 39.1825 19.9488 39.7321 20.6185C40.2818 21.2881 41.0376 21.6243 41.9995 21.6271C42.7601 21.6271 43.3737 21.421 43.8292 20.9991C44.2848 20.5772 44.5747 19.9272 44.6853 19.0416L51.7678 19.0519Z" fill="white"/>
<path d="M62.3254 21.2856C61.8369 20.9957 61.4576 20.5161 61.1821 19.8496C60.9065 19.1831 60.7698 18.303 60.7698 17.2043C60.7698 15.493 61.0575 14.2707 61.6328 13.5373C62.21 12.8049 62.9314 12.438 63.8081 12.438C64.6473 12.438 65.3071 12.7511 65.7876 13.3772C66.4472 14.2164 66.777 15.4426 66.777 17.0559C66.777 18.1635 66.646 19.0755 66.384 19.7919C66.1209 20.5099 65.7581 21.0108 65.3012 21.2952C64.8639 21.5735 64.3566 21.7217 63.8383 21.7226C63.3034 21.7193 62.7797 21.5681 62.3254 21.2856ZM56.3642 10.3369C54.5897 12.0624 53.7027 14.3575 53.7031 17.2222C53.7031 19.3164 54.1818 21.0799 55.1391 22.5128C56.0965 23.9456 57.3561 24.9693 58.9181 25.584C60.4594 26.1954 62.1026 26.5088 63.7607 26.5075C65.7862 26.5075 67.5956 26.0966 69.1887 25.2748C70.7818 24.4531 71.9567 23.3471 72.7135 21.9569C73.4706 20.5708 73.8492 18.9763 73.8492 17.1734C73.8492 14.3192 72.9649 12.0356 71.1964 10.3225C69.4278 8.60931 66.9433 7.75183 63.7428 7.75C60.5974 7.75 58.1378 8.61161 56.3642 10.3348V10.3369Z" fill="white"/>
<path d="M81.278 17.324C81.278 16.0914 81.6642 14.8038 82.4316 13.4709C83.1991 12.1379 84.2084 11.4653 85.4644 11.4653C86.1144 11.4653 86.6011 11.6753 86.9245 12.0953C87.2481 12.5186 87.4151 13.0985 87.4151 13.8412C87.4283 15.3411 87.0175 16.8143 86.2299 18.0908C85.4392 19.3766 84.5398 20.0179 83.5317 20.0147C82.6027 20.0147 81.9582 19.6725 81.5982 18.9882C81.3852 18.5745 81.278 18.0208 81.278 17.324ZM81.8895 32.3293C80.9029 32.3293 80.0763 32.1844 79.403 31.8937C78.1176 31.3289 77.4745 30.3015 77.4736 28.8115C77.4736 27.8216 77.8914 26.9371 78.7269 26.1579C79.5624 25.3788 80.1244 24.9894 80.413 24.9899C80.582 24.9899 81.21 25.196 82.3052 25.6192C83.4004 26.0425 84.1755 26.364 84.6351 26.5887C85.1848 26.8704 85.584 27.1329 85.8272 27.3796C86.0524 27.6011 86.2299 27.8664 86.3488 28.159C86.4677 28.4517 86.5254 28.7656 86.5184 29.0815C86.5184 29.9683 86.0798 30.7323 85.2027 31.3736C84.3255 32.0149 83.2211 32.3335 81.8895 32.3293ZM75.5938 29.2374C75.5938 30.3006 76.0976 31.2021 77.1053 31.9418C78.1131 32.6816 79.4783 33.0499 81.2011 33.0467C83.6869 33.0467 85.5453 32.5405 86.7761 31.5282C88.0069 30.5159 88.6218 29.3382 88.6209 27.9952C88.6209 26.2037 87.3956 24.844 84.945 23.916C82.4797 22.9998 81.2476 22.3524 81.2485 21.9736C81.2485 21.7159 81.3996 21.4239 81.7026 21.1016C81.994 20.7773 82.2214 20.6145 82.3897 20.6145C82.6013 20.6619 82.78 20.6915 82.9291 20.71C83.0842 20.727 83.2402 20.7353 83.3963 20.7347C85.022 20.7347 86.5388 20.2144 87.9469 19.1737C89.355 18.133 90.0578 16.7068 90.0556 14.8952C90.0617 14.6094 90.0444 14.3235 90.004 14.0405C89.9649 13.8145 89.9144 13.5907 89.8529 13.3699H91.5754V12.0026H89.2943C89.1726 11.7964 88.7576 11.5333 88.0575 11.22C87.3574 10.9067 86.4903 10.75 85.4741 10.75C83.5269 10.75 81.8934 11.3093 80.5738 12.4279C79.2541 13.5464 78.5943 14.9492 78.5943 16.6363C78.5943 17.6871 78.9055 18.5425 79.528 19.2025C80.0558 19.7037 80.6806 20.0914 81.3639 20.3417C80.56 20.8914 79.9806 21.3332 79.6256 21.6671C78.9852 22.2621 78.6671 22.7864 78.6671 23.2474C78.6671 23.5724 78.7571 23.8308 78.9378 24.0266C79.1413 24.243 79.3723 24.4317 79.6249 24.5879C78.2232 25.3382 77.2008 26.0913 76.5577 26.8471C75.9146 27.6029 75.5933 28.3994 75.5938 29.2368V29.2374Z" fill="white"/>
<path d="M98.6927 10.766C98.7302 10.8383 98.7496 10.9187 98.7491 11.0002C98.7368 11.0706 98.7179 11.1396 98.6927 11.2064L96.9963 17.7681L97.3873 16.9834C98.1647 15.4531 99.1095 14.0138 100.204 12.6919C101.277 11.396 102.3 10.7479 103.274 10.7474C103.797 10.7474 104.201 10.9201 104.486 11.2655C104.764 11.5983 104.916 12.0193 104.913 12.4534C104.913 12.9571 104.768 13.3734 104.488 13.6998C104.207 14.0262 103.816 14.1959 103.32 14.1959C102.976 14.1959 102.716 14.1272 102.54 13.9946C102.37 13.8699 102.229 13.7095 102.127 13.5246L101.921 13.1584C101.882 13.0946 101.829 13.0401 101.766 12.999C101.698 12.9589 101.619 12.9391 101.54 12.942C101.1 12.942 100.465 13.548 99.6409 14.7627C98.7937 16.0139 98.0508 17.3325 97.4195 18.7052C97.0265 19.5641 96.5884 20.7008 96.1051 22.1153C95.8028 23.0098 95.3963 24.2803 94.8856 25.9265H92.2891L95.0965 15.8064C95.247 15.2293 95.3782 14.7146 95.471 14.2591C95.5549 13.892 95.6029 13.5176 95.6146 13.1412C95.6146 12.8094 95.5314 12.5517 95.3645 12.3737C95.1975 12.1958 94.9034 12.1072 94.4864 12.1072C94.318 12.1095 94.1498 12.1212 93.9827 12.1422C93.7814 12.1642 93.5382 12.1917 93.2572 12.2246V11.6873L93.9381 11.5499C94.8175 11.3667 95.7795 11.1722 96.8238 10.9666C97.8682 10.7609 98.4179 10.6579 98.4728 10.6574C98.516 10.6531 98.5595 10.661 98.5983 10.6802C98.6372 10.6994 98.6699 10.7291 98.6927 10.766Z" fill="white"/>
<path d="M115.262 13.8233C115.262 15.8218 114.512 18.0608 113.012 20.5403C111.455 23.2657 109.835 24.6289 108.151 24.6298C107.883 24.6351 107.617 24.5831 107.37 24.4774C107.124 24.3718 106.903 24.2148 106.721 24.017C106.338 23.6047 106.146 22.9547 106.146 22.0533C106.146 20.2714 106.84 18.1449 108.228 15.6737C109.804 12.8699 111.511 11.4673 113.35 11.4659C113.602 11.4622 113.852 11.5112 114.084 11.6097C114.316 11.7083 114.525 11.8543 114.697 12.0383C115.074 12.4217 115.262 13.014 115.262 13.8233ZM113.179 10.75C110.83 10.75 108.562 12.0738 106.377 14.7214C104.257 17.2682 103.196 19.714 103.195 22.0588C103.195 23.4219 103.564 24.4755 104.3 25.2194C105.036 25.9642 105.858 26.3331 106.758 26.3331C107.329 26.327 107.895 26.2255 108.432 26.0329C109.179 25.7315 109.96 25.2184 110.774 24.4938C111.424 23.9377 112.01 23.3119 112.523 22.6277C112.999 21.9866 113.337 21.5002 113.537 21.1635C113.393 21.6761 113.242 22.3054 113.091 23.0537C112.94 23.8019 112.867 24.3749 112.867 24.7714C112.867 25.2022 112.978 25.5663 113.21 25.8542C113.443 26.1421 113.769 26.285 114.195 26.285C114.853 26.285 115.539 26.0226 116.262 25.4914C116.984 24.9603 117.942 23.9606 119.136 22.4806L118.734 22.1227L117.641 23.1911C117.478 23.3477 117.337 23.4776 117.221 23.5855C117.105 23.6933 116.998 23.782 116.899 23.8603L116.602 24.0925C116.459 24.2044 116.309 24.3054 116.151 24.3949C116.05 24.4553 115.934 24.4893 115.816 24.4938C115.703 24.4971 115.592 24.4588 115.505 24.3859C115.421 24.3138 115.381 24.2011 115.381 24.0465C115.381 23.8042 115.587 22.8306 115.999 21.1257C116.252 20.1816 116.559 19.0507 116.923 17.748L118.585 11.7621C118.634 11.6089 118.668 11.4872 118.693 11.4055C118.719 11.3237 118.756 11.2069 118.802 11.0619C118.824 10.9602 118.831 10.8929 118.811 10.8517C118.79 10.8105 118.733 10.7953 118.627 10.7953L116.679 11.0056C116.552 11.018 116.473 11.0461 116.44 11.0935C116.388 11.1833 116.347 11.2794 116.32 11.3794L115.938 12.6113L115.855 12.3811C115.728 12.0194 115.519 11.6921 115.245 11.4247C114.756 10.9763 114.068 10.7514 113.179 10.75Z" fill="white"/>
<path d="M132.912 11.1183C133.452 11.4847 133.722 12.0926 133.721 12.9418C133.721 13.3197 133.631 13.8481 133.446 14.5221C133.261 15.1961 132.927 16.2852 132.448 17.7865C133.688 15.8874 134.754 14.4415 135.646 13.4489C137.262 11.6492 138.691 10.7495 139.932 10.75C140.46 10.7508 140.97 10.9407 141.37 11.2852C141.809 11.6421 142.028 12.2146 142.027 13.003C142.027 13.248 141.921 13.8435 141.709 14.7894L139.076 23.951C139.054 24.0239 139.048 24.1005 139.056 24.1762C139.064 24.2518 139.088 24.325 139.125 24.3914C139.207 24.5474 139.355 24.6243 139.574 24.6243C139.765 24.6294 139.953 24.5757 140.112 24.4704C140.326 24.3225 140.525 24.1538 140.706 23.9668C140.932 23.741 141.117 23.5447 141.262 23.378C141.399 23.2062 141.811 22.7184 142.488 21.9076L143.003 22.3123L142.831 22.5493C142.016 23.6995 141.199 24.6156 140.378 25.2977C139.558 25.9797 138.747 26.3212 137.945 26.3221C137.619 26.3325 137.299 26.2378 137.032 26.0521C136.648 25.7587 136.458 25.2661 136.458 24.5804C136.459 24.3985 136.473 24.2169 136.499 24.0369C136.53 23.8205 136.574 23.606 136.629 23.3945L139.24 13.9772C139.273 13.844 139.299 13.7306 139.314 13.6419C139.332 13.5531 139.341 13.4626 139.341 13.3719C139.341 13.1033 139.269 12.8951 139.126 12.7535C139.057 12.6817 138.973 12.6251 138.881 12.5874C138.788 12.5498 138.689 12.532 138.589 12.5351C137.825 12.5351 136.934 13.1007 135.918 14.2322C134.943 15.3069 134.055 16.4573 133.262 17.6724C132.58 18.8611 132.1 19.8553 131.819 20.6551C131.539 21.4548 131.028 23.2106 130.288 25.9223H127.686L131.044 13.9793C131.069 13.8783 131.087 13.7807 131.103 13.6866C131.121 13.5895 131.13 13.4908 131.13 13.3918C131.13 13.1239 131.069 12.9109 130.949 12.7625C130.83 12.6141 130.628 12.5351 130.356 12.5351C129.628 12.5351 128.732 13.1218 127.666 14.2954C126.601 15.4689 125.729 16.5648 125.049 17.5831C124.38 18.5807 123.744 19.9034 123.13 21.5599C122.78 22.5709 122.315 24.025 121.735 25.9223H119.133L122.393 14.0109C122.425 13.8859 122.454 13.767 122.475 13.6516C122.498 13.5331 122.51 13.4124 122.508 13.2915C122.508 12.8456 122.359 12.5763 122.052 12.487C121.745 12.3976 121.159 12.3667 120.289 12.3997V11.8741C121.417 11.6909 123.248 11.3175 125.78 10.7541L125.914 10.8696L124.008 17.7404C125.272 15.9224 126.468 14.4032 127.596 13.183C129.147 11.5669 130.516 10.7578 131.701 10.7555C132.133 10.7474 132.556 10.8743 132.912 11.1183Z" fill="white"/>
</g>
<defs>
<clipPath id="clip0_4719_85">
<rect width="143" height="33.0482" fill="white"/>
</clipPath>
</defs>
</svg>
