<svg width="18" height="17" viewBox="0 0 18 17" fill="none" xmlns="http://www.w3.org/2000/svg">
<path d="M7.79589 16.2715C6.79103 16.2715 5.96094 15.4414 5.96094 14.4365C5.96094 13.4317 6.79103 12.6016 7.79589 12.6016C8.80074 12.6016 9.63084 13.4317 9.63084 14.4365C9.63084 15.4414 8.80074 16.2715 7.79589 16.2715ZM7.79589 13.9122C7.51191 13.9122 7.27162 14.1525 7.27162 14.4365C7.27162 14.7205 7.51191 14.9608 7.79589 14.9608C8.07987 14.9608 8.32016 14.7205 8.32016 14.4365C8.32016 14.1525 8.07987 13.9122 7.79589 13.9122Z" fill="#0971CE"/>
<path d="M13.0381 16.2715C12.0332 16.2715 11.2031 15.4414 11.2031 14.4365C11.2031 13.4317 12.0332 12.6016 13.0381 12.6016C14.0429 12.6016 14.873 13.4317 14.873 14.4365C14.873 15.4414 14.0429 16.2715 13.0381 16.2715ZM13.0381 13.9122C12.7541 13.9122 12.5138 14.1525 12.5138 14.4365C12.5138 14.7205 12.7541 14.9608 13.0381 14.9608C13.3221 14.9608 13.5623 14.7205 13.5623 14.4365C13.5623 14.1525 13.3221 13.9122 13.0381 13.9122Z" fill="#0971CE"/>
<path d="M15.7282 12.0583H5.26456L2.42476 1.31068H0V0H3.42961L6.29126 10.7476H15.7282V12.0583Z" fill="#0971CE"/>
<path d="M15.5753 10.0253H5.11173V8.71458H14.5486L15.903 3.64662H3.42969V2.33594H17.6069L15.5753 10.0253Z" fill="#0971CE"/>
</svg>
