<svg width="143" height="34" viewBox="0 0 143 34" fill="none" xmlns="http://www.w3.org/2000/svg">
<g clip-path="url(#clip0_4719_147)">
<path d="M11.9814 13.9372C12.5462 14.6168 12.83 15.6302 12.83 16.9851C12.83 17.8481 12.7031 18.6012 12.4493 19.2443C12.1985 19.8881 11.844 20.3546 11.3761 20.6466C10.9055 20.9392 10.3609 21.0908 9.80679 21.0836C8.94656 21.0836 8.24092 20.7524 7.70018 20.0915C7.15945 19.4305 6.8853 18.3518 6.8853 16.8505C6.8853 15.5629 7.17594 14.5863 7.75721 13.9207C8.33986 13.2549 9.05306 12.921 9.89062 12.921C10.7282 12.921 11.4153 13.2618 11.9814 13.9372ZM7.05432 31.9458V24.1879C7.56689 24.8062 8.00731 25.2515 8.37009 25.5304C8.73288 25.8094 9.20559 26.0437 9.78 26.2292C10.3544 26.4147 11.0449 26.504 11.8413 26.504C14.1128 26.504 16.0208 25.6589 17.5654 23.9687C19.11 22.2785 19.8827 19.9783 19.8836 17.0683C19.8836 15.2997 19.5696 13.6903 18.9416 12.2401C18.3136 10.7899 17.3842 9.67911 16.1534 8.90774C14.9217 8.13591 13.5503 7.75 12.0391 7.75C10.6746 7.75 9.47493 8.0482 8.44774 8.64321C7.42054 9.23823 6.71147 9.98922 6.32945 10.8859V8.26669H0V31.941L7.05432 31.9458Z" fill="#231916"/>
<path d="M22.3281 25.9357V8.27344H29.3811V25.9357H22.3281Z" fill="#231916"/>
<path d="M22.3281 0H29.3811V8.6573H22.3281V0Z" fill="#9B2234"/>
<path d="M51.7756 19.0519C51.6304 20.1361 51.4069 21.0177 51.105 21.6965C50.815 22.3532 50.4174 22.957 49.9287 23.4829C49.4125 24.0273 48.829 24.5039 48.1925 24.9011C47.4676 25.3541 46.6848 25.707 45.8653 25.9503C44.7138 26.2988 43.4491 26.4727 42.0712 26.4717C38.8584 26.4717 36.348 25.6072 34.5401 23.878C32.7321 22.1488 31.8281 19.9071 31.8281 17.1528C31.8281 14.3655 32.7351 12.1016 34.549 10.3609C36.3629 8.62031 38.8703 7.75 42.0712 7.75C44.2328 7.75 46.024 8.10751 47.4449 8.82254C48.8658 9.53757 49.9292 10.4995 50.6351 11.7083C51.127 12.5369 51.4681 13.6168 51.6581 14.9479H44.5386C44.4593 14.1532 44.1932 13.5435 43.7402 13.1189C43.2871 12.6943 42.6965 12.4811 41.9682 12.4792C41.0603 12.4792 40.3244 12.8228 39.7605 13.5099C39.1967 14.1969 38.9143 15.3526 38.9134 16.9769C38.9134 18.7349 39.1882 19.9488 39.7379 20.6185C40.2875 21.2881 41.0433 21.6243 42.0053 21.6271C42.7659 21.6271 43.3794 21.421 43.835 20.9991C44.2905 20.5772 44.5805 19.9272 44.6918 19.0416L51.7756 19.0519Z" fill="#231916"/>
<path d="M62.3254 21.2856C61.8369 20.9957 61.4576 20.5161 61.1821 19.8496C60.9065 19.1831 60.7698 18.303 60.7698 17.2043C60.7698 15.493 61.0575 14.2707 61.6328 13.5373C62.2099 12.8049 62.9314 12.438 63.8081 12.438C64.6473 12.438 65.3071 12.7511 65.7876 13.3772C66.4472 14.2164 66.777 15.4426 66.777 17.0559C66.777 18.1635 66.646 19.0755 66.384 19.7919C66.1208 20.5099 65.7581 21.0108 65.3012 21.2952C64.8639 21.5735 64.3566 21.7217 63.8383 21.7226C63.3034 21.7193 62.7797 21.5681 62.3254 21.2856ZM56.3642 10.3369C54.5892 12.0624 53.7022 14.3575 53.7031 17.2222C53.7031 19.3164 54.1818 21.0799 55.1391 22.5128C56.0965 23.9456 57.3561 24.9693 58.9181 25.584C60.4604 26.1958 62.1049 26.5092 63.7641 26.5075C65.7897 26.5075 67.599 26.0966 69.1921 25.2748C70.7853 24.4531 71.9604 23.3471 72.7176 21.9569C73.4743 20.5708 73.8526 18.9763 73.8526 17.1734C73.8526 14.3192 72.9684 12.0356 71.1998 10.3225C69.4312 8.60931 66.9456 7.75183 63.7428 7.75C60.5974 7.75 58.1378 8.61161 56.3642 10.3348V10.3369Z" fill="#231916"/>
<path d="M81.278 17.324C81.278 16.0914 81.6642 14.8038 82.4323 13.4709C83.2005 12.1379 84.2085 11.4653 85.4645 11.4653C86.1144 11.4653 86.6014 11.6753 86.9252 12.0953C87.2481 12.5186 87.4151 13.0985 87.4151 13.8412C87.4284 15.3411 87.0175 16.8143 86.2299 18.0908C85.4393 19.3766 84.5399 20.0179 83.5317 20.0147C82.6027 20.0147 81.9583 19.6725 81.5982 18.9882C81.3845 18.5745 81.278 18.0208 81.278 17.324ZM81.8902 32.3293C80.9029 32.3293 80.077 32.1844 79.4037 31.8937C78.1174 31.3289 77.4743 30.3015 77.4743 28.8115C77.4743 27.8216 77.8921 26.9371 78.7276 26.1579C79.5631 25.3788 80.1249 24.9894 80.413 24.9899C80.582 24.9899 81.21 25.196 82.3052 25.6192C83.4005 26.0425 84.1755 26.364 84.6358 26.5887C85.1855 26.8704 85.5847 27.1329 85.8272 27.3796C86.0525 27.6011 86.23 27.8664 86.3488 28.159C86.4677 28.4517 86.5254 28.7656 86.5185 29.0815C86.5185 29.9683 86.0799 30.7323 85.2027 31.3736C84.3255 32.0149 83.2214 32.3335 81.8902 32.3293ZM75.5938 29.2374C75.5938 30.3006 76.0976 31.2021 77.1054 31.9418C78.1131 32.6816 79.4783 33.0499 81.2011 33.0467C83.687 33.0467 85.5453 32.5405 86.7761 31.5282C88.0069 30.5159 88.6219 29.3382 88.6209 27.9952C88.6209 26.2037 87.3956 24.844 84.945 23.916C82.4798 22.9998 81.2476 22.3524 81.2485 21.9736C81.2485 21.7159 81.3997 21.4239 81.7027 21.1016C81.994 20.7773 82.2214 20.6145 82.3897 20.6145C82.6014 20.6619 82.7807 20.6915 82.9291 20.71C83.0843 20.727 83.2403 20.7353 83.3963 20.7347C85.022 20.7347 86.5388 20.2144 87.9469 19.1737C89.355 18.133 90.0579 16.7068 90.0556 14.8952C90.0617 14.6094 90.0445 14.3235 90.004 14.0405C89.9652 13.8145 89.9148 13.5907 89.8529 13.3699H91.5754V12.0026H89.2943C89.1727 11.7964 88.7577 11.5333 88.0575 11.22C87.3574 10.9067 86.491 10.75 85.4741 10.75C83.5269 10.75 81.8934 11.3093 80.5738 12.4279C79.2541 13.5464 78.5943 14.9492 78.5943 16.6363C78.5943 17.6871 78.9055 18.5425 79.528 19.2025C80.0559 19.7035 80.6807 20.0912 81.3639 20.3417C80.56 20.8914 79.9829 21.3332 79.6256 21.6671C78.9852 22.2621 78.6637 22.7864 78.6637 23.2474C78.6637 23.5724 78.7537 23.8308 78.9344 24.0266C79.1379 24.243 79.3689 24.4317 79.6215 24.5879C78.2198 25.3382 77.1974 26.0913 76.5543 26.8471C75.9112 27.6029 75.591 28.3994 75.5938 29.2368V29.2374Z" fill="#9B2234"/>
<path d="M98.6991 10.7655C98.7367 10.8379 98.756 10.9183 98.7555 10.9998C98.7436 11.0702 98.7247 11.1393 98.6991 11.2059L97.0027 17.7676L97.3937 16.983C98.1711 15.4527 99.1159 14.0134 100.211 12.6914C101.283 11.3956 102.306 10.7474 103.28 10.747C103.804 10.747 104.208 10.9197 104.492 11.265C104.771 11.5979 104.922 12.0189 104.919 12.453C104.919 12.9566 104.774 13.373 104.495 13.6994C104.215 14.0258 103.822 14.1955 103.327 14.1955C102.983 14.1955 102.723 14.1284 102.548 13.9941C102.377 13.8697 102.237 13.7092 102.135 13.5242L101.929 13.158C101.89 13.0942 101.837 13.0398 101.775 12.9986C101.706 12.9585 101.628 12.9387 101.549 12.9415C101.108 12.9415 100.475 13.5485 99.6487 14.7623C98.8015 16.0134 98.0586 17.332 97.4274 18.7048C97.0343 19.5637 96.5962 20.7003 96.113 22.1148C95.8106 23.0094 95.4041 24.2798 94.8934 25.9261H92.2969L95.1043 15.806C95.2548 15.2288 95.386 14.7142 95.4788 14.2587C95.563 13.8916 95.6111 13.5172 95.6224 13.1408C95.6224 12.8089 95.5392 12.5513 95.3723 12.3733C95.2053 12.1954 94.9112 12.1067 94.4942 12.1067C94.3258 12.109 94.1576 12.1207 93.9905 12.1418C93.7892 12.1637 93.546 12.1912 93.265 12.2242V11.6869L93.9459 11.5495C94.8254 11.3663 95.7886 11.1718 96.8358 10.9662C97.8829 10.7605 98.4326 10.6574 98.4848 10.657C98.527 10.6536 98.5694 10.662 98.6072 10.6812C98.645 10.7003 98.6768 10.7295 98.6991 10.7655Z" fill="#9B2234"/>
<path d="M115.265 13.8233C115.265 15.8218 114.516 18.0608 113.017 20.5403C111.459 23.2657 109.839 24.6289 108.155 24.6298C107.887 24.6352 107.62 24.5832 107.374 24.4775C107.128 24.3719 106.907 24.2148 106.726 24.017C106.341 23.6047 106.15 22.9547 106.15 22.0533C106.15 20.2714 106.844 18.1449 108.232 15.6737C109.807 12.8699 111.514 11.4673 113.353 11.4659C113.605 11.4622 113.855 11.5112 114.087 11.6097C114.319 11.7083 114.528 11.8543 114.701 12.0383C115.078 12.4217 115.265 13.014 115.265 13.8233ZM113.183 10.75C110.833 10.75 108.564 12.0738 106.377 14.7214C104.257 17.2682 103.196 19.714 103.195 22.0588C103.195 23.4219 103.564 24.4755 104.3 25.2194C105.037 25.9642 105.858 26.3331 106.759 26.3331C107.329 26.327 107.895 26.2255 108.432 26.0329C109.179 25.7315 109.959 25.2184 110.774 24.4938C111.424 23.9375 112.01 23.3118 112.524 22.6277C113 21.9866 113.337 21.5002 113.537 21.1635C113.393 21.6761 113.242 22.3054 113.091 23.0537C112.94 23.8019 112.867 24.3749 112.867 24.7714C112.867 25.2022 112.978 25.5663 113.211 25.8542C113.444 26.1421 113.77 26.285 114.196 26.285C114.854 26.285 115.54 26.0226 116.262 25.4914C116.985 24.9603 117.942 23.9606 119.136 22.4806L118.734 22.1227L117.642 23.1911C117.479 23.3477 117.338 23.4776 117.222 23.5855C117.107 23.6933 116.999 23.782 116.899 23.8603L116.602 24.0925C116.46 24.2045 116.309 24.3056 116.152 24.3949C116.05 24.4553 115.935 24.4893 115.817 24.4938C115.704 24.4971 115.593 24.4588 115.506 24.3859C115.422 24.3138 115.381 24.2011 115.381 24.0465C115.381 23.8042 115.588 22.8306 116 21.1257C116.253 20.1816 116.56 19.0507 116.923 17.748L118.585 11.7621C118.635 11.6089 118.669 11.4872 118.694 11.4055C118.719 11.3237 118.757 11.2069 118.802 11.0619C118.825 10.9602 118.832 10.8929 118.811 10.8517C118.791 10.8105 118.734 10.7953 118.628 10.7953L116.679 11.0056C116.554 11.018 116.473 11.0461 116.44 11.0935C116.388 11.1833 116.348 11.2794 116.321 11.3794L115.939 12.6113L115.856 12.3811C115.729 12.0196 115.52 11.6923 115.246 11.4247C114.759 10.9763 114.072 10.7514 113.183 10.75Z" fill="#9B2234"/>
<path d="M132.908 11.1183C133.448 11.4847 133.718 12.0926 133.717 12.9418C133.717 13.3197 133.627 13.8481 133.442 14.5221C133.257 15.1961 132.923 16.2852 132.444 17.7865C133.684 15.8874 134.749 14.4415 135.641 13.4489C137.258 11.6492 138.687 10.7495 139.928 10.75C140.456 10.751 140.965 10.9409 141.365 11.2852C141.804 11.6421 142.023 12.2146 142.023 13.003C142.023 13.248 141.917 13.8435 141.705 14.7894L139.072 23.951C139.05 24.0239 139.043 24.1005 139.052 24.1762C139.06 24.2518 139.083 24.325 139.121 24.3914C139.202 24.5474 139.351 24.6243 139.57 24.6243C139.761 24.6295 139.949 24.5757 140.108 24.4704C140.322 24.3223 140.521 24.1537 140.702 23.9668C140.928 23.741 141.113 23.5447 141.257 23.378C141.395 23.2062 141.807 22.7184 142.484 21.9076L142.999 22.3123L142.827 22.5493C142.012 23.6995 141.194 24.6156 140.374 25.2977C139.553 25.9797 138.742 26.3212 137.94 26.3221C137.615 26.3324 137.295 26.2377 137.028 26.0521C136.644 25.7587 136.454 25.2661 136.454 24.5804C136.455 24.3985 136.469 24.2169 136.495 24.0369C136.526 23.8205 136.569 23.606 136.624 23.3945L139.235 13.9772C139.269 13.844 139.294 13.7306 139.31 13.6419C139.328 13.5531 139.337 13.4626 139.337 13.3719C139.337 13.1033 139.265 12.8951 139.122 12.7535C139.053 12.6817 138.969 12.6251 138.876 12.5874C138.784 12.5498 138.685 12.532 138.585 12.5351C137.82 12.5351 136.93 13.1007 135.914 14.2322C134.939 15.3071 134.051 16.4574 133.258 17.6724C132.576 18.8611 132.095 19.8553 131.815 20.6551C131.534 21.4548 131.024 23.2106 130.283 25.9223H127.682L131.04 13.9793C131.065 13.8783 131.083 13.7807 131.099 13.6866C131.117 13.5894 131.126 13.4907 131.126 13.3918C131.126 13.1239 131.065 12.9109 130.945 12.7625C130.825 12.6141 130.625 12.5351 130.351 12.5351C129.624 12.5351 128.728 13.1218 127.662 14.2954C126.596 15.4689 125.724 16.5648 125.045 17.5831C124.376 18.5807 123.739 19.9034 123.125 21.5599C122.776 22.5709 122.311 24.025 121.731 25.9223H119.125L122.386 14.0109C122.417 13.8859 122.446 13.767 122.467 13.6516C122.491 13.5331 122.502 13.4124 122.5 13.2915C122.5 12.8456 122.352 12.5763 122.045 12.487C121.739 12.3976 121.152 12.3667 120.281 12.3997V11.8741C121.41 11.6909 123.24 11.3175 125.773 10.7541L125.906 10.8696L124.001 17.7404C125.264 15.9224 126.46 14.4032 127.589 13.183C129.14 11.5669 130.508 10.7578 131.693 10.7555C132.126 10.7467 132.551 10.8736 132.908 11.1183Z" fill="#9B2234"/>
</g>
<defs>
<clipPath id="clip0_4719_147">
<rect width="143" height="33.0482" fill="white"/>
</clipPath>
</defs>
</svg>
